<svg id="Layer_1" data-name="Layer 1" xmlns="http://www.w3.org/2000/svg" viewBox="0 0 50 50"><defs><style>.cls-1{fill:none;}.cls-1,.cls-2{stroke:#000;stroke-linecap:round;stroke-miterlimit:10;stroke-width:2px;}</style></defs><title>Artboard 1</title><path class="cls-1" d="M43,40H7a4,4,0,0,1-4-4V14a4,4,0,0,1,4-4H43a4,4,0,0,1,4,4V36A4,4,0,0,1,43,40ZM9,29h5M9,34H22m6-15H41M18,29h5m4,0h5m4,0h5"/><path class="cls-2" d="M14,22H10a1,1,0,0,1-1-1V18a1,1,0,0,1,1-1h4a1,1,0,0,1,1,1v3A1,1,0,0,1,14,22Z"/></svg>