<?xml version="1.0" encoding="iso-8859-1"?>
<!-- Generator: Adobe Illustrator 24.0.0, SVG Export Plug-In . SVG Version: 6.00 Build 0)  -->
<svg version="1.1" id="Layer_1" xmlns="http://www.w3.org/2000/svg" xmlns:xlink="http://www.w3.org/1999/xlink" x="0px" y="0px"
	 viewBox="0 0 50 50" style="enable-background:new 0 0 50 50;" xml:space="preserve">
<path style="fill:none;stroke:#000000;stroke-width:2;stroke-linecap:round;stroke-linejoin:round;stroke-miterlimit:10;" d="M31,16
	h-3v-6h3V16z"/>
<path style="fill:none;stroke:#000000;stroke-width:2;stroke-linecap:round;stroke-linejoin:round;stroke-miterlimit:10;" d="M44,43
	c0,1.1-0.9,2-2,2H8c-1.1,0-2-0.9-2-2V8c0-1.1,0.9-2,2-2h27.8l8.2,8.2V43z"/>
<path style="fill:none;stroke:#000000;stroke-width:2;stroke-linecap:round;stroke-linejoin:round;stroke-miterlimit:10;" d="
	M36,44.8V29c0-1.1-0.9-2-2-2H16c-1.1,0-2,0.9-2,2v15.8 M35,18c0,1.1-0.9,2-2,2H16c-1.1,0-2-0.9-2-2V7c0-0.6,0.4-1,1-1h19
	c0.6,0,1,0.4,1,1V18z"/>
<path d="M39,40h2v2h-2V40z M9,40h2v2H9V40z"/>
</svg>
