<svg xmlns="http://www.w3.org/2000/svg" viewBox="0 0 50 50"><defs><style>.cls-1,.cls-2{fill:none;stroke:#000;stroke-width:2px;}.cls-1{stroke-miterlimit:10;}.cls-2{stroke-linecap:round;stroke-linejoin:round;}</style></defs><title>Artboard 1</title><g id="List"><rect x="13" y="11" width="24" height="2"/><rect x="13" y="25" width="4" height="2"/><rect x="20" y="25" width="17" height="2"/><path d="M32.08,31a11.54,11.54,0,0,0-1.82,2H20V31Z"/><path d="M28.38,37A12.11,12.11,0,0,0,28,39H20V37Z"/><rect x="13" y="31" width="4" height="2"/><rect x="13" y="37" width="4" height="2"/><path d="M6,2V48H31.07a11,11,0,0,1-1.46-2H8V4H42V28.17a11.08,11.08,0,0,1,2,.52V2Z"/></g><g id="Add_Button" data-name="Add Button"><circle class="cls-1" cx="40" cy="40" r="9"/><line class="cls-2" x1="40" y1="35" x2="40" y2="45"/><line class="cls-2" x1="35" y1="40" x2="45" y2="40"/></g></svg>