<?xml version="1.0" encoding="UTF-8" standalone="no"?>
<svg
   xmlns:osb="http://www.openswatchbook.org/uri/2009/osb"
   xmlns:dc="http://purl.org/dc/elements/1.1/"
   xmlns:cc="http://creativecommons.org/ns#"
   xmlns:rdf="http://www.w3.org/1999/02/22-rdf-syntax-ns#"
   xmlns:svg="http://www.w3.org/2000/svg"
   xmlns="http://www.w3.org/2000/svg"
   xmlns:xlink="http://www.w3.org/1999/xlink"
   xmlns:sodipodi="http://sodipodi.sourceforge.net/DTD/sodipodi-0.dtd"
   xmlns:inkscape="http://www.inkscape.org/namespaces/inkscape"
   width="52.916683mm"
   height="17.745003mm"
   viewBox="0 0 199.99809 67.06773"
   version="1.1"
   id="svg3779"
   sodipodi:docname="logo.svg"
   style="fill:none"
   inkscape:export-filename="C:\Users\casha\Downloads\full-logo.svg.2020_05_04_17_12_17.0.png"
   inkscape:export-xdpi="2.378993"
   inkscape:export-ydpi="2.378993"
   inkscape:version="0.92.4 (5da689c313, 2019-01-14)">
  <metadata
     id="metadata3783">
    <rdf:RDF>
      <cc:Work
         rdf:about="">
        <dc:format>image/svg+xml</dc:format>
        <dc:type
           rdf:resource="http://purl.org/dc/dcmitype/StillImage" />
        <dc:title></dc:title>
      </cc:Work>
    </rdf:RDF>
  </metadata>
  <sodipodi:namedview
     pagecolor="#ffffff"
     bordercolor="#666666"
     borderopacity="1"
     objecttolerance="10"
     gridtolerance="10"
     guidetolerance="10"
     inkscape:pageopacity="0"
     inkscape:pageshadow="2"
     inkscape:window-width="1920"
     inkscape:window-height="1017"
     id="namedview3781"
     showgrid="false"
     showguides="false"
     fit-margin-top="0"
     fit-margin-left="0"
     fit-margin-right="0"
     fit-margin-bottom="0"
     units="mm"
     inkscape:zoom="2.56"
     inkscape:cx="99.759755"
     inkscape:cy="23.436166"
     inkscape:window-x="-8"
     inkscape:window-y="-8"
     inkscape:window-maximized="1"
     inkscape:current-layer="layer4"
     viewbox-width="200" />
  <defs
     id="defs3777">
    <linearGradient
       inkscape:collect="always"
       id="linearGradient6641">
      <stop
         style="stop-color:#000000;stop-opacity:1;"
         offset="0"
         id="stop6637" />
      <stop
         style="stop-color:#000000;stop-opacity:0;"
         offset="1"
         id="stop6639" />
    </linearGradient>
    <linearGradient
       id="linearGradient6617"
       osb:paint="solid">
      <stop
         style="stop-color:#000000;stop-opacity:1;"
         offset="0"
         id="stop6615" />
    </linearGradient>
    <linearGradient
       id="linearGradient6593"
       osb:paint="solid">
      <stop
         style="stop-color:#000000;stop-opacity:1;"
         offset="0"
         id="stop6591" />
    </linearGradient>
    <linearGradient
       id="linearGradient6493"
       osb:paint="solid">
      <stop
         style="stop-color:#000000;stop-opacity:1;"
         offset="0"
         id="stop6491" />
    </linearGradient>
    <radialGradient
       id="paint0_radial"
       cx="-5.5511151e-17"
       cy="1.110223e-16"
       r="1"
       gradientUnits="userSpaceOnUse"
       gradientTransform="matrix(-136.27188,340.45101,-280.7706,-112.3837,162.18391,-17.149165)"
       fx="-5.5511151e-17"
       fy="1.110223e-16">
      <stop
         offset="0.3162"
         stop-color="#FFC40C"
         id="stop3772"
         style="stop-color:#b06ab3;stop-opacity:0.94117647" />
      <stop
         offset="0.69748104"
         stop-color="#FAA819"
         id="stop3774"
         style="stop-color:#4568dc;stop-opacity:1" />
    </radialGradient>
    <radialGradient
       id="paint0_radial-2"
       cx="-5.5511151e-17"
       cy="1.110223e-16"
       r="1"
       gradientUnits="userSpaceOnUse"
       gradientTransform="matrix(-122.13671,305.13681,-251.64691,-100.7264,157.23259,22.637886)"
       fx="-5.5511151e-17"
       fy="1.110223e-16">
      <stop
         offset="0.3162"
         stop-color="#FFC40C"
         id="stop3772-0"
         style="stop-color:#b06ab3;stop-opacity:0.94117647" />
      <stop
         offset="0.69748104"
         stop-color="#FAA819"
         id="stop3774-7"
         style="stop-color:#4568dc;stop-opacity:1" />
    </radialGradient>
    <radialGradient
       id="paint0_radial-2-1"
       cx="-5.5511151e-17"
       cy="1.110223e-16"
       r="1"
       gradientUnits="userSpaceOnUse"
       gradientTransform="matrix(-104.67562,261.51338,-215.67058,-86.3262,10342.603,-10284.45)"
       fx="-5.5511151e-17"
       fy="1.110223e-16">
      <stop
         offset="0.3162"
         stop-color="#FFC40C"
         id="stop3772-0-7"
         style="stop-color:#b06ab3;stop-opacity:0.94117647" />
      <stop
         offset="0.69748104"
         stop-color="#FAA819"
         id="stop3774-7-4"
         style="stop-color:#4568dc;stop-opacity:1" />
    </radialGradient>
    <radialGradient
       inkscape:collect="always"
       xlink:href="#paint0_radial"
       id="radialGradient6611"
       gradientUnits="userSpaceOnUse"
       gradientTransform="matrix(-122.96819,307.21411,-253.36007,-101.41212,149.82292,-7.0391625)"
       cx="-5.5511151e-17"
       cy="1.110223e-16"
       fx="-5.5511151e-17"
       fy="1.110223e-16"
       r="1" />
    <linearGradient
       inkscape:collect="always"
       xlink:href="#linearGradient6641"
       id="linearGradient6643"
       x1="74.832642"
       y1="113.95859"
       x2="173.0598"
       y2="113.95859"
       gradientUnits="userSpaceOnUse" />
    <radialGradient
       inkscape:collect="always"
       xlink:href="#paint0_radial-1"
       id="radialGradient6611-0"
       gradientUnits="userSpaceOnUse"
       gradientTransform="matrix(-122.96819,307.21411,-253.36007,-101.41212,149.85219,-7.0471273)"
       cx="-5.5511151e-17"
       cy="1.110223e-16"
       fx="-5.5511151e-17"
       fy="1.110223e-16"
       r="1" />
    <radialGradient
       id="paint0_radial-1"
       cx="-5.5511151e-17"
       cy="1.110223e-16"
       r="1"
       gradientUnits="userSpaceOnUse"
       gradientTransform="matrix(-136.27188,340.45101,-280.7706,-112.3837,162.18391,-17.149165)"
       fx="-5.5511151e-17"
       fy="1.110223e-16">
      <stop
         offset="0.3162"
         stop-color="#FFC40C"
         id="stop3772-9"
         style="stop-color:#b06ab3;stop-opacity:0.94117647" />
      <stop
         offset="0.69748104"
         stop-color="#FAA819"
         id="stop3774-3"
         style="stop-color:#4568dc;stop-opacity:1" />
    </radialGradient>
    <radialGradient
       inkscape:collect="always"
       xlink:href="#paint0_radial-1"
       id="radialGradient6737"
       gradientUnits="userSpaceOnUse"
       gradientTransform="matrix(-38.628975,96.507612,-79.590009,-31.857395,-10156.396,10347.706)"
       cx="-5.5511151e-17"
       cy="1.110223e-16"
       fx="-5.5511151e-17"
       fy="1.110223e-16"
       r="1" />
  </defs>
  <flowRoot
     xml:space="preserve"
     id="flowRoot4537"
     style="font-style:normal;font-weight:normal;font-size:133.33332825px;line-height:1.25;font-family:sans-serif;letter-spacing:0px;word-spacing:0px;fill:#ffffff;fill-opacity:1;stroke:none"
     transform="translate(10195.456,-10352.118)"><flowRegion
       id="flowRegion4539"
       style="font-size:133.33332825px;fill:#ffffff;fill-opacity:1"><rect
         id="rect4541"
         width="146.52805"
         height="137.86629"
         x="144.00169"
         y="52.787537"
         style="font-size:133.33332825px;fill:#ffffff;fill-opacity:1" /></flowRegion><flowPara
       id="flowPara4543"
       style="font-size:133.33332825px">D</flowPara></flowRoot>  <path
     d="m 10405.04,-10160.496 c -37.537,28.82 -78.678,45.184 -125.838,50.052 -9.354,0.248 -19.016,-3.915 -25.26,-10.884 -28.82,-37.537 -45.184,-78.678 -50.052,-125.838 -0.248,-9.354 3.914,-19.016 10.883,-25.26 37.537,-28.82 78.678,-45.184 125.838,-50.052 9.354,-0.248 19.016,3.915 25.26,10.884 28.82,37.536 45.184,78.677 50.053,125.838 0.248,9.354 -3.965,19.132 -10.884,25.26 z"
     id="path3762-2"
     style="opacity:0.60100002;fill:none;fill-opacity:1;stroke-width:0.8962723"
     inkscape:connector-curvature="0" />
  <path
     d="m 10387.469,-10139.625 c -32.17,24.7 -67.429,38.725 -107.847,42.897 -8.017,0.212 -16.297,-3.355 -21.649,-9.328 -24.7,-32.17 -38.725,-67.43 -42.897,-107.848 -0.212,-8.017 3.355,-16.297 9.328,-21.649 32.17,-24.7 67.429,-38.724 107.847,-42.896 8.017,-0.213 16.298,3.355 21.649,9.328 24.7,32.17 38.725,67.429 42.897,107.847 0.213,8.017 -3.398,16.397 -9.328,21.649 z"
     id="path3762-2-7"
     style="opacity:0;fill:url(#paint0_radial-2-1);stroke-width:0.76813805"
     inkscape:connector-curvature="0" />
  <g
     inkscape:groupmode="layer"
     id="layer4"
     inkscape:label="Layer 1"
     transform="translate(10203.157,-10349.918)">
    <path
       style="fill:url(#radialGradient6737);stroke-width:0.28346959"
       clip-path="none"
       d="m -10160.215,10349.921 c -14.916,1.539 -27.927,6.715 -39.799,15.831 -2.205,1.975 -3.522,5.03 -3.443,7.989 1.199,11.618 4.605,22.08 10.359,31.749 1.634,2.744 3.457,5.425 5.472,8.05 1.975,2.204 5.03,3.521 7.989,3.442 7.645,-0.789 14.789,-2.536 21.537,-5.277 h -7.225 c -5.02,0 -9.031,-1.587 -12.033,-4.761 -2.978,-3.174 -4.466,-7.431 -4.466,-12.771 0,-4.995 1.562,-9.105 4.687,-12.328 3.15,-3.224 7.161,-4.835 12.033,-4.835 2.264,0 4.725,0.48 7.382,1.44 v -18.308 h 6.755 v 48.218 c 3.828,-2.047 7.531,-4.445 11.129,-7.208 2.188,-1.938 3.521,-5.03 3.443,-7.989 -1.54,-14.916 -6.715,-27.928 -15.831,-39.8 -1.975,-2.204 -5.031,-3.521 -7.989,-3.442 z m -3.856,32.92 c -3.346,0 -6.016,1.095 -8.009,3.285 -1.969,2.19 -2.953,5.143 -2.953,8.859 0,3.494 0.861,6.189 2.584,8.083 1.033,1.132 2.129,1.895 3.285,2.289 1.157,0.394 3.235,0.59 6.237,0.59 h 5.205 v -21.518 c -2.091,-1.058 -4.208,-1.588 -6.349,-1.588 z"
       id="path3762-5"
       inkscape:connector-curvature="0" />
    <text
       xml:space="preserve"
       style="font-style:normal;font-weight:normal;font-size:0.62448126px;line-height:1.25;font-family:sans-serif;letter-spacing:0px;word-spacing:0px;fill:#000000;fill-opacity:1;stroke:none;stroke-width:0.00325251"
       x="-10130.151"
       y="10398.286"
       id="text6742"><tspan
         sodipodi:role="line"
         id="tspan6740"
         x="-10130.151"
         y="10398.286"
         style="font-style:normal;font-variant:normal;font-weight:normal;font-stretch:normal;font-size:43.36675644px;font-family:sans-serif;-inkscape-font-specification:sans-serif;fill:#000000;fill-opacity:1;stroke-width:0.00325251">deesk</tspan></text>
  </g>
  <g
     inkscape:groupmode="layer"
     id="layer2"
     inkscape:label="Layer 2"
     transform="translate(10195.456,-10352.118)">
    <text
       xml:space="preserve"
       style="font-style:normal;font-weight:normal;font-size:40px;line-height:1.25;font-family:sans-serif;letter-spacing:0px;word-spacing:0px;fill:#000000;fill-opacity:1;stroke:none"
       x="89.143906"
       y="120.63796"
       id="text4627"><tspan
         sodipodi:role="line"
         id="tspan4625"
         x="89.143906"
         y="157.13118" /></text>
  </g>
  <g
     inkscape:groupmode="layer"
     id="layer3"
     inkscape:label="Layer 3"
     transform="translate(10203.157,-10349.918)" />
</svg>
