<?xml version="1.0" encoding="utf-8"?>
<!-- Generator: Adobe Illustrator 24.0.0, SVG Export Plug-In . SVG Version: 6.00 Build 0)  -->
<svg version="1.1" id="Layer_1" xmlns="http://www.w3.org/2000/svg" xmlns:xlink="http://www.w3.org/1999/xlink" x="0px" y="0px"
	 viewBox="0 0 50 50" style="enable-background:new 0 0 50 50;" xml:space="preserve">
<style type="text/css">
	.st0{fill:none;stroke:#000000;stroke-width:2;stroke-linecap:round;stroke-linejoin:round;stroke-miterlimit:10;}
	.st1{fill:none;stroke:#000000;stroke-width:2;stroke-linecap:round;stroke-miterlimit:10;}
</style>
<path class="st0" d="M41.1,23.2L41.1,23.2c0-0.5,0-1,0-1.5C41.1,15,35.7,9.5,29,9.5c-5.2,0-9.7,3.3-11.4,7.9
	c-1.1-1.1-2.6-1.8-4.3-1.8c-3.3,0-6,2.7-6,6c0,0.1,0,0.2,0,0.3C3.7,23,1,26.3,1,30.3C1,35.1,4.9,39,9.7,39c2.4,0,29.4,0,31.4,0
	c4.4,0,7.9-3.5,7.9-7.9S45.5,23.2,41.1,23.2z"/>
<line class="st1" x1="21" y1="23" x2="31" y2="33"/>
<line class="st1" x1="21" y1="33" x2="31" y2="23"/>
</svg>
