<?xml version="1.0" encoding="utf-8"?>
<!-- Generator: Adobe Illustrator 24.0.1, SVG Export Plug-In . SVG Version: 6.00 Build 0)  -->
<svg version="1.1" id="Layer_1" xmlns="http://www.w3.org/2000/svg" xmlns:xlink="http://www.w3.org/1999/xlink" x="0px" y="0px"
	 viewBox="0 0 50 50" style="enable-background:new 0 0 50 50;" xml:space="preserve">
<style type="text/css">
	.st0{fill:none;stroke:#000000;stroke-width:2;stroke-linecap:round;stroke-miterlimit:10;}
	.st1{fill:none;stroke:#000000;stroke-width:2;stroke-miterlimit:10;}
	.st2{fill:none;stroke:#000000;stroke-width:2;stroke-linecap:round;stroke-linejoin:round;stroke-miterlimit:10;}
</style>
<path d="M40,30c-5.5,0-10,4.5-10,10s4.5,10,10,10s10-4.5,10-10S45.5,30,40,30z M40,48c-4.4,0-8-3.6-8-8s3.6-8,8-8s8,3.6,8,8
	S44.4,48,40,48z"/>
<path d="M36.4,35.5c0,0-0.1,0-0.1,0c-0.5,0.1-0.9,0.6-0.8,1.2c0,0.2,0.1,0.4,0.3,0.6l2.8,2.8l-2.8,2.8c-0.4,0.4-0.4,1,0,1.4
	s1,0.4,1.4,0l2.8-2.8l2.8,2.8c0.4,0.4,1,0.4,1.4,0s0.4-1,0-1.4L41.4,40l2.8-2.8c0.4-0.4,0.4-1,0-1.4c-0.2-0.2-0.6-0.4-0.9-0.3
	c-0.2,0-0.4,0.1-0.6,0.3L40,38.6l-2.8-2.8C37,35.6,36.7,35.4,36.4,35.5z"/>
<path class="st0" d="M47,29V9H1v32h26"/>
<path class="st1" d="M16,25.6L1.1,37.2"/>
<path class="st2" d="M35.5,28.4l-3-2.4"/>
<path class="st1" d="M46.9,12.8c0,0-17.6,15.1-19.1,16.3c-1.4,1.2-2.9,1.5-3.8,1.5s-2.4-0.3-3.8-1.5C18.7,27.9,1.1,12.8,1.1,12.8"/>
</svg>
