<?xml version="1.0" encoding="utf-8"?>
<!-- Generator: Adobe Illustrator 23.0.3, SVG Export Plug-In . SVG Version: 6.00 Build 0)  -->
<svg version="1.1" id="Layer_1" xmlns="http://www.w3.org/2000/svg" xmlns:xlink="http://www.w3.org/1999/xlink" x="0px" y="0px"
	 viewBox="0 0 50 50" style="enable-background:new 0 0 50 50;" xml:space="preserve">
<style type="text/css">
	.st0{fill:none;stroke:#000000;stroke-width:2;stroke-linecap:round;stroke-linejoin:round;}
</style>
<polyline class="st0" points="19,10 13.2,13.1 3.1,7 3.1,43 14,48.6 24.5,43 37.8,49 47,43 47,7 37.8,13 37.2,12.7 "/>
<g>
	<path class="st0" d="M37,12c0,8.2-9,19-9,19s-9-10.6-9-19c0-5,4-9,9-9S37,7,37,12z"/>
	<path class="st0" d="M28,9c-2.2,0-4,1.8-4,4s1.8,4,4,4s4-1.8,4-4S30.2,9,28,9z"/>
</g>
</svg>
