<svg fill="#000000" xmlns="http://www.w3.org/2000/svg" viewBox="0 0 50 50" width="50px" height="50px"><path fill="none" d="M0 0H50V50H0z"/><path d="M24,40l-2,0l0,-1c-0.37,0.438 -0.563,0.574 -0.979,0.782c-0.417,0.233 -0.836,0.218 -1.23,0.218c-0.484,0 -1.034,-0.437 -1.291,-0.765c-0.232,-0.3 -0.5,-0.61 -0.5,-1.235l0,-9l2,0l0,8c0,0.23 0.268,1.007 1,1c0.813,-0.008 0.819,-0.767 1,-1l0,-8l2,0l0,11Zm4,0l-2,0l0,-14l2,0l0,4c0.23,-0.36 0.575,-0.643 0.9,-0.805c0.324,-0.165 0.648,-0.255 0.973,-0.255c0.649,0 1.159,0.23 1.505,0.671c0.349,0.441 0.622,1.026 0.622,1.889l0,6c0,0.741 -0.251,1.202 -0.576,1.6c-0.321,0.392 -0.802,0.894 -1.424,0.9c-1.051,0.011 -1.614,-0.549 -2,-1l0,1Zm-11,-12l-2,0l0,12l-2,0l0,-12l-2,0l0,-2l6,0l0,2Zm18,7l0,1.546c0,0.557 0.075,0.917 0.216,1.126c0.138,0.23 0.417,0.332 0.784,0.328c0.406,-0.004 0.663,-0.085 0.801,-0.269c0.14,-0.165 0.199,-0.628 0.199,-1.231l0,-0.5l2,0l0,0.592c0,1.093 -0.088,1.902 -0.624,2.435c-0.508,0.557 -1.3,0.815 -2.338,0.815c-0.951,0 -1.692,-0.279 -2.227,-0.858c-0.53,-0.579 -0.808,-1.369 -0.808,-2.392l0,-4.708c0,-0.904 0.317,-1.574 0.9,-2.173c0.467,-0.479 1.346,-0.711 2.295,-0.711c0.951,0 1.617,0.201 2.122,0.734c0.514,0.533 0.68,1.152 0.68,2.15l0,3.116l-4,0Zm-5,-3c0,-1.001 -0.448,-1.5 -1,-1.5c-0.552,0 -0.991,0.497 -1,1l0,6c0.009,0.288 0.448,0.5 1,0.5c0.552,0 1,-0.425 1,-0.977l0,-5.023Zm7,1l0,-1c0,-0.615 -0.448,-1 -1,-1c-0.552,0 -0.991,0.463 -1,1l0,1l2,0Z"/><path fill-rule="nonzero" d="M19 5l-2 6-2-6-2 0 3 9 0 6 2 0 0-6 3-9-2 0zm6 12c0 .969-.676 1-1 1-.3 0-1-.013-1-1l0-5c0-.815.433-1 1-1 .3 0 1-.002 1 1l0 5zm1.24-7.278c-.627-.576-1.27-.722-2.24-.722-1.068 0-1.591.168-2.242.701-.625.53-.799.937-.758 2.299l0 5c0 .996.162 1.652.765 2.236.625.579 1.216.764 2.235.764 1.065 0 1.648-.184 2.248-.765.627-.558.752-1.237.752-2.235l0-5c0-.882-.157-1.721-.76-2.278zm6.76-.722l0 8c-.011.683-.816 1-1 1-.208 0-1-.042-1-1l0-8-2 0 0 9c0 .972.98 2 2 2 1.02 0 1.559-.513 2-1l0 1 2 0 0-11-2 0zM40.584 22.001c.709.011 1.415.108 2.091.329.546.179 1.067.437 1.535.773.529.381.985.861 1.339 1.409.248.384.446.8.594 1.233.24.699.345 1.433.357 2.171.017 3.417.052 6.836-.002 10.253-.019.733-.132 1.463-.379 2.156-.153.43-.356.842-.609 1.222-.361.544-.823 1.017-1.358 1.391-.452.316-.953.56-1.477.732-.649.212-1.327.311-2.007.328-10.111.158-20.226.191-30.336 0-.609-.019-1.213-.116-1.792-.312-.402-.136-.789-.318-1.15-.541-.293-.181-.568-.389-.822-.62-.88-.8-1.487-1.864-1.802-3.005-.166-.604-.248-1.226-.264-1.851-.051-3.279-.052-6.559 0-9.838.019-.733.132-1.463.379-2.156.153-.43.356-.842.609-1.222.361-.543.823-1.017 1.358-1.391.452-.316.953-.56 1.477-.732.649-.212 1.327-.31 2.007-.328 10.083-.158 20.168-.054 30.252-.001zm-30.079 1.999c-.425.002-.849.043-1.262.146-.641.16-1.244.469-1.708.944-.161.166-.305.349-.427.544-.167.266-.296.555-.391.855-.148.468-.209.957-.217 1.447-.016 3.231-.05 6.461.001 9.691.012.441.067.88.179 1.307.21.798.619 1.552 1.233 2.111.164.149.341.283.529.399.232.144.481.26.739.348.407.137.832.2 1.26.208 10.061.063 20.124.157 30.185-.001.398-.011.795-.057 1.182-.158.621-.163 1.206-.469 1.657-.931.151-.155.286-.325.404-.507.169-.262.301-.547.398-.844.153-.462.219-.946.232-1.432.054-3.417.054-6.836 0-10.254-.013-.485-.079-.97-.232-1.432-.097-.297-.229-.582-.398-.844-.118-.182-.253-.352-.404-.507-.451-.462-1.036-.768-1.657-.931-.387-.101-.784-.147-1.182-.158-10.039-.157-20.081-.001-30.121-.001z"/></svg>