<?xml version="1.0" encoding="iso-8859-1"?>
<!-- Generator: Adobe Illustrator 24.0.0, SVG Export Plug-In . SVG Version: 6.00 Build 0)  -->
<svg version="1.1" xmlns="http://www.w3.org/2000/svg" xmlns:xlink="http://www.w3.org/1999/xlink" x="0px" y="0px"
	 viewBox="0 0 50 50" style="enable-background:new 0 0 50 50;" xml:space="preserve">
<g id="POS_Terminal">
	<g>
		<path style="fill:none;stroke:#000000;stroke-width:2;stroke-linecap:round;stroke-linejoin:round;stroke-miterlimit:10;" d="
			M40,16v19.2"/>
		<path d="M18.229,25h-3.514c-0.429,0-0.771-0.308-0.771-0.692v-1.615c0-0.385,0.343-0.692,0.771-0.692h3.514
			C18.657,22,19,22.308,19,22.692v1.615C19,24.692,18.657,25,18.229,25z M18.229,30h-3.514c-0.429,0-0.771-0.308-0.771-0.692v-1.615
			c0-0.385,0.343-0.692,0.771-0.692h3.514C18.657,27,19,27.308,19,27.692v1.615C19,29.692,18.657,30,18.229,30z M18.229,35h-3.514
			c-0.429,0-0.771-0.308-0.771-0.692v-1.615c0-0.385,0.343-0.692,0.771-0.692h3.514C18.657,32,19,32.308,19,32.692v1.615
			C19,34.692,18.657,35,18.229,35z"/>
		<path d="M32.229,25h-3.514c-0.429,0-0.771-0.308-0.771-0.692v-1.615c0-0.385,0.343-0.692,0.771-0.692h3.514
			C32.657,22,33,22.308,33,22.692v1.615C33,24.692,32.657,25,32.229,25z M32.229,30h-3.514c-0.429,0-0.771-0.308-0.771-0.692v-1.615
			c0-0.385,0.343-0.692,0.771-0.692h3.514C32.657,27,33,27.308,33,27.692v1.615C33,29.692,32.657,30,32.229,30z M32.229,35h-3.514
			c-0.429,0-0.771-0.308-0.771-0.692v-1.615c0-0.385,0.343-0.692,0.771-0.692h3.514C32.657,32,33,32.308,33,32.692v1.615
			C33,34.692,32.657,35,32.229,35z"/>
		<path d="M25.229,25h-3.514c-0.429,0-0.771-0.308-0.771-0.692v-1.615c0-0.385,0.343-0.692,0.771-0.692h3.514
			C25.657,22,26,22.308,26,22.692v1.615C26,24.692,25.657,25,25.229,25z M25.229,30h-3.514c-0.429,0-0.771-0.308-0.771-0.692v-1.615
			c0-0.385,0.343-0.692,0.771-0.692h3.514C25.657,27,26,27.308,26,27.692v1.615C26,29.692,25.657,30,25.229,30z M25.229,35h-3.514
			c-0.429,0-0.771-0.308-0.771-0.692v-1.615c0-0.385,0.343-0.692,0.771-0.692h3.514C25.657,32,26,32.308,26,32.692v1.615
			C26,34.692,25.657,35,25.229,35z"/>
		<path style="fill:none;stroke:#000000;stroke-width:2;stroke-linecap:round;stroke-linejoin:round;stroke-miterlimit:10;" d="
			M34.229,38H12.971c-0.974,0-1.771-0.797-1.771-1.771V8.771C11.2,7.797,11.997,7,12.971,7h21.257C35.203,7,36,7.797,36,8.771
			v27.457C36,37.203,35.203,38,34.229,38z"/>
		<path style="fill:none;stroke:#000000;stroke-width:2;stroke-linecap:round;stroke-linejoin:round;stroke-miterlimit:10;" d="
			M30.895,19h-14.79C15.51,19,15,18.467,15,17.844v-5.689C15,11.533,15.51,11,16.105,11h14.79C31.49,11,32,11.533,32,12.156v5.689
			C32,18.467,31.49,19,30.895,19z"/>
	</g>
</g>
<g id="Bank_Card">
</g>
<g id="Mask">
</g>
</svg>
