<?xml version="1.0" encoding="utf-8"?>
<!-- Generator: Adobe Illustrator 24.0.1, SVG Export Plug-In . SVG Version: 6.00 Build 0)  -->
<svg version="1.1" id="Layer_1" xmlns="http://www.w3.org/2000/svg" xmlns:xlink="http://www.w3.org/1999/xlink" x="0px" y="0px"
	 viewBox="0 0 50 50" style="enable-background:new 0 0 50 50;" xml:space="preserve">
<style type="text/css">
	.st0{fill:none;stroke:#000000;stroke-width:2;stroke-linecap:round;stroke-linejoin:round;stroke-miterlimit:10;}
</style>
<path class="st0" d="M25.3,45.6c-0.1,0-0.2,0-0.3,0l0,0c-0.1,0-0.1,0-0.2,0c-2.6,0-4.3-1.2-5.9-2.3c-1.1-0.8-2.2-1.5-3.4-1.7
	c-0.6-0.1-1.2-0.2-1.8-0.2c-1.1,0-1.9,0.2-2.5,0.3c-0.4,0.1-0.7,0.1-0.9,0.1c-0.3,0-0.5-0.1-0.6-0.5c-0.1-0.4-0.2-0.7-0.2-1
	C9.1,39.5,9,39,8.6,38.9c-4.1-0.6-5.3-1.5-5.6-2.1C3,36.7,3,36.6,3,36.6c0-0.2,0.2-0.4,0.4-0.5c6.4-1,9.2-7.5,9.3-7.8c0,0,0,0,0,0
	c0.4-0.8,0.5-1.5,0.2-2c-0.4-1-1.9-1.5-2.8-1.8c-0.2-0.1-0.4-0.1-0.6-0.2c-1.9-0.7-2-1.5-2-1.9c0.1-0.7,1-1.1,1.7-1.1
	c0.2,0,0.4,0,0.5,0.1c0.8,0.4,1.6,0.6,2.3,0.6c0.9,0,1.3-0.4,1.4-0.4c0-0.4-0.1-0.9-0.1-1.3c-0.2-3-0.4-6.7,0.5-8.9
	c2.8-6.4,8.9-6.9,10.7-6.9c0,0,0.8,0,0.8,0h0.1c1.8,0,7.8,0.5,10.7,6.9c1,2.1,0.7,5.9,0.5,8.9l0,0.1c0,0.4-0.1,0.8-0.1,1.2
	c0,0,0.4,0.4,1.2,0.4h0c0.6,0,1.3-0.2,2.1-0.6c0.2-0.1,0.5-0.1,0.7-0.1c0.3,0,0.5,0.1,0.8,0.1l0,0c0.6,0.2,1.1,0.7,1.1,1.1
	c0,0.4-0.3,1.1-2,1.8c-0.2,0.1-0.4,0.1-0.6,0.2c-0.9,0.3-2.4,0.8-2.8,1.8c-0.2,0.6-0.2,1.2,0.2,2c0,0,0,0,0,0c0.1,0.3,3,6.8,9.3,7.8
	c0.2,0,0.4,0.2,0.4,0.5c0,0.1,0,0.2-0.1,0.3c-0.3,0.6-1.4,1.5-5.6,2.1c-0.3,0.1-0.5,0.5-0.7,1.4c-0.1,0.3-0.1,0.7-0.2,1
	c-0.1,0.3-0.3,0.4-0.6,0.4h-0.1c-0.2,0-0.5,0-0.9-0.1c-0.7-0.1-1.5-0.3-2.5-0.3c-0.6,0-1.2,0.1-1.8,0.2c-1.2,0.2-2.3,1-3.4,1.7
	C29.6,44.5,27.9,45.6,25.3,45.6z"/>
</svg>
