<?xml version="1.0" encoding="iso-8859-1"?>
<!-- Generator: Adobe Illustrator 23.0.3, SVG Export Plug-In . SVG Version: 6.00 Build 0)  -->
<svg version="1.1" id="Layer_1" xmlns="http://www.w3.org/2000/svg" xmlns:xlink="http://www.w3.org/1999/xlink" x="0px" y="0px"
	 viewBox="0 0 50 50" style="enable-background:new 0 0 50 50;" xml:space="preserve">
<path style="fill:none;stroke:#000000;stroke-width:2;stroke-linecap:round;stroke-linejoin:round;stroke-miterlimit:10;" d="
	M39.531,17.851c-4.228-0.96-1.91-14.859-14.535-14.859c-12.963,0-10.062,13.221-14.692,14.859
	c-4.461,1.579-7.312,5.141-7.312,10.205c10.278,0.544,4.854,9.141,8.582,10.383c3.817,1.273,5.443,1.558,6.871,4.58
	c1.033,2.187,2.545,4.039,6.701,3.987c6.701-0.085,5.774-5.597,9.161-6.616c8.737-2.63,0.679-10.773,12.693-10.129
	C47,25.198,47.028,19.555,39.531,17.851z"/>
<path d="M26.5,12c-0.828-0.001-1.5,1.341-1.5,2.998c0,1.657,0.67,3.001,1.498,3.002c0.001,0,0.001,0,0.002,0
	c0.828,0.001,1.5-1.341,1.5-2.998c0-1.657-0.67-3.001-1.498-3.002C26.501,12,26.501,12,26.5,12z"/>
<path d="M19.5,12c-0.828-0.001-1.5,1.341-1.5,2.998c0,1.657,0.67,3.001,1.498,3.002c0.001,0,0.001,0,0.002,0
	c0.828,0.001,1.5-1.341,1.5-2.998c0-1.657-0.67-3.001-1.498-3.002C19.501,12,19.501,12,19.5,12z"/>
</svg>
