<?xml version="1.0" encoding="utf-8"?>
<!-- Generator: Adobe Illustrator 24.0.0, SVG Export Plug-In . SVG Version: 6.00 Build 0)  -->
<svg version="1.1" id="Layer_1" xmlns="http://www.w3.org/2000/svg" xmlns:xlink="http://www.w3.org/1999/xlink" x="0px" y="0px"
	 viewBox="0 0 50 50" style="enable-background:new 0 0 50 50;" xml:space="preserve">
<style type="text/css">
	.st0{fill:#FFFFFF;}
	.st1{fill:none;stroke:#000000;stroke-width:2;stroke-linecap:round;stroke-linejoin:round;stroke-miterlimit:10;}
	.st2{fill:none;stroke:#000000;stroke-width:1.929;stroke-linecap:round;stroke-linejoin:round;stroke-miterlimit:10;}
</style>
<path class="st0" d="M37,16c0,10.9-12,27-12,27S13,27.2,13,16c0-6.7,5.3-12,12-12S37,9.3,37,16z"/>
<path class="st1" d="M37,16c0,10.9-12,27-12,27S13,27.2,13,16c0-6.7,5.3-12,12-12S37,9.3,37,16z"/>
<path class="st2" d="M25,11c-2.8,0-5,2.2-5,5s2.2,5,5,5s5-2.2,5-5S27.8,11,25,11z"/>
<g>
	<path d="M32.8,36.6c-0.4,0.6-0.7,1.3-1.1,1.8c5.3,0.8,8.3,2.3,8.3,3.6c0,1.7-5.7,4-15,4c-9.6,0-16-2.4-16-4c0-1.2,3.5-2.8,9.3-3.6
		c-0.4-0.6-0.7-1.2-1.1-1.8C11.5,37.4,7,39.3,7,42c0,3.9,9.3,6,18,6c8.2,0,17-1.9,17-6C42,39.2,37.9,37.4,32.8,36.6z"/>
</g>
</svg>
