<?xml version="1.0" encoding="utf-8"?>
<!-- Generator: Adobe Illustrator 24.0.0, SVG Export Plug-In . SVG Version: 6.00 Build 0)  -->
<svg version="1.1" id="Layer_1" xmlns="http://www.w3.org/2000/svg" xmlns:xlink="http://www.w3.org/1999/xlink" x="0px" y="0px"
	 viewBox="0 0 50 50" enable-background="new 0 0 50 50" xml:space="preserve">
<path fill="none" stroke="#000000" stroke-width="2" stroke-linecap="round" stroke-miterlimit="10" d="M10,16c-5,0-9,4-9,9s4,9,9,9
	s9-4,9-9S15,16,10,16z M40,1c-5,0-9,4-9,9s4,9,9,9s9-4,9-9S45,1,40,1z M40,31c-5,0-9,4-9,9s4,9,9,9s9-4,9-9S45,31,40,31z M34.4,33
	L19,25.3 M15.8,31.9L31,39.5 M31,10.5l-15.2,7.6 M19,24.7L34.4,17"/>
</svg>
